# xmcd CD database file
#
# Track frame offsets:
#	150
#	21750
#	41665
#	64837
#	85750
#	101275
#	129315
#	149145
#	170267
#	190017
#	211200
#	232467
#
# Disc length: 3428 seconds
#
# Revision: 2
# Processed by: cddbd v1.5PL3 Copyright (c) Steve Scherf et al.
# Submitted via: CDex 1.50
#
DISCID=a60d620c
DTITLE=SHOOTING GALLERY - Shooting Gallery
DYEAR=1992
DGENRE=Hard Rock
TTITLE0=Restless
TTITLE1=Teenage Breakdown
TTITLE2=Nature Of My Business
TTITLE3=Don't Never Leave Me
TTITLE4=House Of Ecstasy
TTITLE5=Little Bit Of Magic
TTITLE6=I Mess Around
TTITLE7=Striptease
TTITLE8=Brown Eyed Girl
TTITLE9=Devil Calling
TTITLE10=Leave Me Alone
TTITLE11=Dandelion
EXTD=YEAR: 1992
EXTT0=
EXTT1=
EXTT2=
EXTT3=
EXTT4=
EXTT5=
EXTT6=
EXTT7=
EXTT8=
EXTT9=
EXTT10=
EXTT11=
PLAYORDER=
